<?xml version="1.0"?>
<!--Icons from directory ""-->
<svg xmlns="http://www.w3.org/2000/svg" width="300" height="900" viewBox="0 0 300 900"><svg xmlns:xlink="http://www.w3.org/1999/xlink" id="music-note-black-symbol" style="enable-background:new 0 0 475.071 475.071" xml:space="preserve" height="300" viewBox="0 0 475.071 475.071" width="300" version="1.1" y="0" x="0px">	<path d="m448.81 7.994c-5.33-5.33-11.8-7.994-19.41-7.994-3.046 0-5.715 0.383-7.994 1.143l-237.55 73.089c-5.708 1.903-10.373 5.282-13.99 10.135-3.615 4.856-5.424 10.232-5.424 16.134v276.09c-16.562-7.426-34.833-11.139-54.818-11.139-8.564 0-17.749 0.999-27.55 2.994-9.806 1.995-19.657 5.041-29.552 9.134-9.9 4.093-18.083 9.853-24.556 17.271-6.471 7.423-9.705 15.899-9.705 25.413 0 9.521 3.234 17.987 9.705 25.413 6.473 7.419 14.655 13.179 24.556 17.271 9.899 4.093 19.75 7.136 29.552 9.134 9.801 1.995 18.986 2.991 27.55 2.991s17.746-0.996 27.55-2.991c9.806-1.998 19.653-5.041 29.552-9.134 9.896-4.093 18.079-9.853 24.55-17.271 6.477-7.426 9.71-15.893 9.71-25.413v-202.42l219.27-67.665v153.32c-16.566-7.422-34.834-11.139-54.819-11.139-8.565 0-17.751 0.996-27.552 2.994-9.805 1.995-19.65 5.041-29.551 9.134-9.896 4.093-18.082 9.853-24.558 17.278-6.468 7.416-9.712 15.89-9.712 25.406 0 9.521 3.244 17.987 9.712 25.413 6.476 7.423 14.661 13.183 24.558 17.271 9.897 4.093 19.746 7.139 29.551 9.138 9.801 1.998 18.986 2.99 27.552 2.99 8.562 0 17.747-0.992 27.548-2.99 9.802-1.999 19.65-5.045 29.554-9.138 9.897-4.089 18.076-9.849 24.551-17.271 6.479-7.426 9.709-15.893 9.709-25.413v-319.75c0-7.611-2.65-14.079-7.99-19.406z" fill="#fff"/></svg><svg xmlns:xlink="http://www.w3.org/1999/xlink" id="spanner-tool" style="enable-background:new 0 0 412.141 412.141" xml:space="preserve" height="300" viewBox="0 0 412.141 412.141" width="300" version="1.1" y="300" x="0px">	<path d="m382.73 240.6c-29.561-29.561-73.1-36.815-109.53-21.779l-79.887-79.888c15.036-36.43 7.781-79.97-21.778-109.53-25.23-25.229-62.37-35.218-96.904-26.057-3.458 0.916-6.164 3.611-7.093 7.064-0.93 3.455 0.056 7.143 2.585 9.672l60.653 60.653-16.032 34.007-34.006 16.032-60.655-60.652c-2.529-2.529-6.217-3.516-9.672-2.586-3.453 0.932-6.147 3.636-7.065 7.094-9.16 34.538 0.829 71.673 26.067 96.911 29.559 29.56 73.099 36.815 109.53 21.778l79.887 79.888c-15.036 36.431-7.78 79.97 21.779 109.53 25.236 25.238 62.373 35.227 96.912 26.065 3.457-0.917 6.16-3.61 7.092-7.063 0.93-3.455-0.057-7.144-2.584-9.672l-60.654-60.654 16.033-34.006 34.006-16.032 60.654 60.653c2.529 2.529 6.217 3.516 9.672 2.585 1.721-0.464 3.252-1.367 4.471-2.585 1.227-1.227 2.135-2.771 2.594-4.508 9.16-34.55-0.83-71.69-26.07-96.93z" fill="#fff"/></svg><svg xmlns:xlink="http://www.w3.org/1999/xlink" id="speech-bubble" style="enable-background:new 0 0 33 33" xml:space="preserve" viewBox="0 0 33 33" height="300" width="300" version="1.1" y="600" x="0px">	<path d="m7.282 32.706c-0.081 0-0.163-0.02-0.237-0.06-0.162-0.087-0.263-0.257-0.263-0.44v-7.124c-4.377-2.276-6.782-6.261-6.782-11.254 0-7.716 7.093-13.534 16.5-13.534s16.5 5.818 16.5 13.534c0 7.715-7.093 13.533-16.5 13.533-0.309 0-0.612-0.017-0.916-0.033l-0.02-0.001-8.007 5.296c-0.083 0.055-0.179 0.083-0.275 0.083zm9.218-31.412c-8.836 0-15.5 5.389-15.5 12.534 0 3.323 1.128 7.842 6.503 10.499 0.17 0.084 0.278 0.258 0.278 0.448v6.501l7.369-4.874c0.09-0.06 0.199-0.095 0.302-0.082l0.186 0.01c0.286 0.016 0.571 0.031 0.861 0.031 8.836 0 15.5-5.388 15.5-12.533s-6.663-12.534-15.499-12.534z" fill="#fff"/></svg></svg>
