<svg xmlns="http://www.w3.org/2000/svg" xmlns:xlink="http://www.w3.org/1999/xlink" id="spanner-tool-Capa_1" style="enable-background:new 0 0 412.141 412.141" xml:space="preserve" height="300" viewBox="0 0 412.141 412.141" width="300" version="1.1" y="0px" x="0px">	<path d="m382.73 240.6c-29.561-29.561-73.1-36.815-109.53-21.779l-79.887-79.888c15.036-36.43 7.781-79.97-21.778-109.53-25.23-25.229-62.37-35.218-96.904-26.057-3.458 0.916-6.164 3.611-7.093 7.064-0.93 3.455 0.056 7.143 2.585 9.672l60.653 60.653-16.032 34.007-34.006 16.032-60.655-60.652c-2.529-2.529-6.217-3.516-9.672-2.586-3.453 0.932-6.147 3.636-7.065 7.094-9.16 34.538 0.829 71.673 26.067 96.911 29.559 29.56 73.099 36.815 109.53 21.778l79.887 79.888c-15.036 36.431-7.78 79.97 21.779 109.53 25.236 25.238 62.373 35.227 96.912 26.065 3.457-0.917 6.16-3.61 7.092-7.063 0.93-3.455-0.057-7.144-2.584-9.672l-60.654-60.654 16.033-34.006 34.006-16.032 60.654 60.653c2.529 2.529 6.217 3.516 9.672 2.585 1.721-0.464 3.252-1.367 4.471-2.585 1.227-1.227 2.135-2.771 2.594-4.508 9.16-34.55-0.83-71.69-26.07-96.93z" fill="#fff"/></svg>