<svg xmlns="http://www.w3.org/2000/svg" xmlns:xlink="http://www.w3.org/1999/xlink" id="speech-bubble-Capa_1" style="enable-background:new 0 0 33 33" xml:space="preserve" viewBox="0 0 33 33" height="300" width="300" version="1.1" y="0px" x="0px">	<path d="m7.282 32.706c-0.081 0-0.163-0.02-0.237-0.06-0.162-0.087-0.263-0.257-0.263-0.44v-7.124c-4.377-2.276-6.782-6.261-6.782-11.254 0-7.716 7.093-13.534 16.5-13.534s16.5 5.818 16.5 13.534c0 7.715-7.093 13.533-16.5 13.533-0.309 0-0.612-0.017-0.916-0.033l-0.02-0.001-8.007 5.296c-0.083 0.055-0.179 0.083-0.275 0.083zm9.218-31.412c-8.836 0-15.5 5.389-15.5 12.534 0 3.323 1.128 7.842 6.503 10.499 0.17 0.084 0.278 0.258 0.278 0.448v6.501l7.369-4.874c0.09-0.06 0.199-0.095 0.302-0.082l0.186 0.01c0.286 0.016 0.571 0.031 0.861 0.031 8.836 0 15.5-5.388 15.5-12.533s-6.663-12.534-15.499-12.534z" fill="#fff"/></svg>