<?xml version="1.0" encoding="iso-8859-1"?>
<!-- Generator: Adobe Illustrator 16.0.0, SVG Export Plug-In . SVG Version: 6.00 Build 0)  -->
<!DOCTYPE svg PUBLIC "-//W3C//DTD SVG 1.1//EN" "http://www.w3.org/Graphics/SVG/1.1/DTD/svg11.dtd">
<svg xmlns="http://www.w3.org/2000/svg" xmlns:xlink="http://www.w3.org/1999/xlink" version="1.1" id="Capa_1" x="0px" y="0px" width="512px" height="512px" viewBox="0 0 412.141 412.141" style="enable-background:new 0 0 412.141 412.141;" xml:space="preserve">
<g>
	<path d="M382.732,240.604c-29.561-29.561-73.1-36.815-109.529-21.779l-79.887-79.888c15.036-36.43,7.781-79.97-21.778-109.528   C146.3,4.171,109.165-5.818,74.626,3.343c-3.458,0.916-6.164,3.611-7.093,7.064c-0.93,3.455,0.056,7.143,2.585,9.672l60.653,60.653   l-16.032,34.007l-34.006,16.032L20.079,70.118c-2.529-2.529-6.217-3.516-9.672-2.586c-3.453,0.932-6.147,3.636-7.065,7.094   c-9.16,34.538,0.829,71.673,26.067,96.911c29.559,29.56,73.099,36.815,109.528,21.778l79.887,79.888   c-15.036,36.431-7.78,79.97,21.779,109.528c25.236,25.238,62.373,35.227,96.912,26.065c3.457-0.917,6.16-3.61,7.092-7.063   c0.93-3.455-0.057-7.144-2.584-9.672l-60.654-60.654l16.033-34.006l34.006-16.032l60.654,60.653   c2.529,2.529,6.217,3.516,9.672,2.585c1.721-0.464,3.252-1.367,4.471-2.585c1.227-1.227,2.135-2.771,2.594-4.508   C417.959,302.978,407.971,265.841,382.732,240.604z" fill="#FFFFFF"/>
</g>
<g>
</g>
<g>
</g>
<g>
</g>
<g>
</g>
<g>
</g>
<g>
</g>
<g>
</g>
<g>
</g>
<g>
</g>
<g>
</g>
<g>
</g>
<g>
</g>
<g>
</g>
<g>
</g>
<g>
</g>
</svg>
